<?xml version="1.0" encoding="utf-8"?>
<!-- Generator: Adobe Illustrator 21.0.0, SVG Export Plug-In . SVG Version: 6.00 Build 0)  -->
<svg version="1.1" id="レイヤー_1" xmlns="http://www.w3.org/2000/svg" xmlns:xlink="http://www.w3.org/1999/xlink" x="0px"
	 y="0px" viewBox="0 0 32 40" style="enable-background:new 0 0 32 40;" xml:space="preserve">
<style type="text/css">
	.st0{fill:#707E87;}
	.st1{fill:#FFFFFF;}
</style>
<path class="st0" d="M32,16c0-9.1-7.6-16.4-16.8-16C7.1,0.4,0.4,7,0,15.1c-0.4,7.7,4.6,14.3,11.6,16.3l3.8,8.3
	c0.2,0.5,0.9,0.5,1.1,0l3.8-8.3C27.1,29.5,32,23.3,32,16z"/>
<path class="st1" d="M27,21.1L19.3,13c-0.1-0.1-0.2-0.1-0.2,0l-2,1.6l-2.2-3.2c0-0.1-0.1-0.1-0.1-0.1c-0.1,0-0.1,0-0.1,0.1l-2.1,3
	l-2.3-6.4C10.1,8.1,10.1,8,10,8l0,0C9.9,8,9.8,8.1,9.8,8.1L5,21.2c0,0.1,0,0.1,0,0.2c0,0.1,0.1,0.1,0.1,0.1h21.7
	c0.1,0,0.1,0,0.2-0.1C27,21.3,27,21.2,27,21.1z"/>
</svg>
