<?xml version="1.0" encoding="utf-8"?>
<!-- Generator: Adobe Illustrator 20.1.0, SVG Export Plug-In . SVG Version: 6.00 Build 0)  -->
<svg version="1.1" id="レイヤー_1" xmlns="http://www.w3.org/2000/svg" xmlns:xlink="http://www.w3.org/1999/xlink" x="0px"
	 y="0px" viewBox="0 0 385.5 96.4" style="enable-background:new 0 0 385.5 96.4;" xml:space="preserve">
<style type="text/css">
	.st0{fill:#8A8A8A;}
</style>
<path class="st0" d="M38.3,69.5c-6.6,0-10.4-5.4-10.7-11.5l6.8-1c0.2,2.5,1.1,6.3,4.3,6.3c2.4,0,4.2-1.3,4.2-3.8
	c0-8.1-14.5-10.5-14.5-22.3c0-6.8,4.4-10.3,11.1-10.3c6,0,9.3,4.5,9.9,10l-6.8,0.8c-0.1-2.2-1.2-4.6-3.8-4.6c-2.5,0-3.6,1.8-3.6,4
	c0,7.1,14.5,10.6,14.5,21.8C49.6,65.7,45,69.5,38.3,69.5"/>
<polygon class="st0" points="70.6,27.5 82.6,27.5 82.6,28.9 80.2,28.9 80.2,67.4 82.6,67.4 82.6,68.8 70.6,68.8 70.6,67.4 
	73.1,67.4 73.1,47.9 66,47.9 66,67.4 68.5,67.4 68.5,68.8 56.5,68.8 56.5,67.4 58.8,67.4 58.8,28.9 56.5,28.9 56.5,27.5 68.5,27.5 
	68.5,28.9 66,28.9 66,46.4 73.1,46.4 73.1,28.9 70.6,28.9 "/>
<path class="st0" d="M117,27.5h11.9c2.2,0,5.1,0,7.6,1.5c2.7,1.7,4.2,4.8,4.2,8.2c0,2.4-0.7,4.8-2.3,6.5c-2.1,2.5-4.4,2.9-7,3.4v0.1
	c1.4,0.2,5.3,0.6,7.9,3.4c1.6,1.8,2.4,4.4,2.4,7c0,2.9-0.9,5.7-2.7,7.7c-3.1,3.5-6.9,3.5-10.2,3.5H117v-1.4h2.4V28.9H117V27.5z
	 M126.7,46.4c1.1,0,2.4,0.1,3.4-0.4c2.5-1,2.8-3.6,2.8-8.6c0-3.9-0.2-6.8-2.5-8c-1.1-0.6-2-0.5-3.8-0.5V46.4z M126.7,67.4
	c2.3,0.1,4,0.1,5.3-1.5c1.7-2,1.7-5.5,1.7-8.6c0-4-0.2-6.5-1.7-8.1c-1.2-1.3-2.8-1.5-5.4-1.4V67.4z"/>
<path class="st0" d="M161.8,69.5c-6.6,0-10.3-4.2-10.3-11v-31h6.7v31.3c0,2.6,0.9,4.5,3.6,4.5c2.7,0,3.6-2,3.6-4.5V27.5h6.7v31
	C172.1,65.3,168.4,69.5,161.8,69.5"/>
<path class="st0" d="M179,27.5h12.9v1.4h-2.5l5.8,17.1l4.8-14.3c0.2-0.6,0.3-1.1,0.3-1.5c0-1.3-0.8-1.3-2.6-1.3v-1.4h7.5v1.4
	c-2.1,0-2.6,0.4-3.4,2.6l-5.9,17.4v18.5h2.5v1.4h-12.4v-1.4h2.5V49.4l-6.9-20.4H179V27.5z"/>
<path class="st0" d="M224.6,68.8l-1.2-9.2h-7.6l-1.2,9.2h-6.7l7.4-41.3h8.6l7.4,41.3H224.6z M219.7,35.8h-0.1l-2.7,17.7h5.6
	L219.7,35.8z"/>
<path class="st0" d="M262.5,69.5c-6.4,0-10.5-4-10.5-10.7V37.5c0-6.6,4.1-10.7,10.5-10.7c8.8,0,10.2,7.1,10.2,14.4h-6.8
	c0-2.6,0.5-8.2-3.3-8.2c-3,0-3.6,1.9-3.6,4.6v21c0,2.7,0.7,4.6,3.6,4.6c4.5,0,3.3-6.2,3.3-9.2h6.8v4.8
	C272.6,65.3,268.7,69.5,262.5,69.5"/>
<path class="st0" d="M291.9,27.5l9.8,39.9h2.6v1.4H291v-1.4h2.6l-2.3-9.7h-7.5l-1.4,5.9c-0.1,0.6-0.5,2.2-0.5,2.7
	c0,1.1,0.9,1.1,2.4,1.1v1.4h-7.5v-1.4c3-0.1,3.1-0.5,4.2-4.7l8.4-35.2H291.9z M287.5,41.9l-3.4,14.3h6.8L287.5,41.9z"/>
<path class="st0" d="M310.3,54.6h6v3.8c0,4.4,0.9,6,3.7,6c2.1,0,3.5-1.6,3.5-4c0-2.2-1.1-5.4-3.7-8.2l-3.4-3.5
	c-5.1-5.3-6.6-8-6.6-12.6c0-5.4,3.2-9.2,7.9-9.2c2,0,3.5,0.6,5,1.9v-1.2h6v12.4h-6v-3.1c0-3.1-0.8-4.8-3.3-4.8c-2.2,0-2.9,1.5-2.9,3
	c0,2.4,1.2,4.9,3.7,7.4l3.3,3.4c4.8,4.9,7,9.3,7,13.8c0,5.7-3.7,9.9-8.8,9.9c-2.1,0-3.9-0.7-5.4-2v1.3h-6V54.6z"/>
<path class="st0" d="M364.9,65.4c0,1.9-1.5,3.4-3.4,3.4s-3.4-1.5-3.4-3.4c0-1.9,1.5-3.4,3.4-3.4S364.9,63.5,364.9,65.4"/>
<polygon class="st0" points="0,0 0,96.4 351.1,96.4 351.1,96.4 351.1,33.7 358,33.7 358,27.5 337.3,27.5 337.3,33.7 344.2,33.7 
	344.2,89.5 6.9,89.5 6.9,6.9 378.6,6.9 378.6,89.5 358,89.5 358,96.4 385.5,96.4 385.5,0 "/>
<polygon class="st0" points="107.4,32.4 107.4,27.5 92.2,27.5 92.2,32.4 96.4,32.4 96.4,64 92.2,64 92.2,68.8 96.4,68.8 103.3,68.8 
	107.4,68.8 107.4,64 103.3,64 103.3,32.4 "/>
</svg>
